# xmcd
#
# Track frame offsets:
#	150
#	37747
#	80980
#	118986
#	158222
#	207225
#	246379
#	277104
#
# Disc length: 4290 seconds
#
# Revision: 1
# Processed by: cddbd v1.5.2PL0 Copyright (c) Steve Scherf et al.
# Submitted via: audiograbber 1.83.01
#
DISCID=7510c008
DTITLE=Kempowski, Walter - Alles umsonst - CD 10
DYEAR=1900
DGENRE=
TTITLE0=CD 10 - Track  1
TTITLE1=CD 10 - Track  2
TTITLE2=CD 10 - Track  3
TTITLE3=CD 10 - Track  4
TTITLE4=CD 10 - Track  5
TTITLE5=CD 10 - Track  6
TTITLE6=CD 10 - Track  7
TTITLE7=CD 10 - Track  8
EXTD=
EXTT0=
EXTT1=
EXTT2=
EXTT3=
EXTT4=
EXTT5=
EXTT6=
EXTT7=
PLAYORDER=
